<svg xmlns="http://www.w3.org/2000/svg" shape-rendering="geometricPrecision" text-rendering="geometricPrecision" image-rendering="optimizeQuality" fill-rule="evenodd" clip-rule="evenodd" viewBox="0 0 512 512.001"><path d="M145.304 0h221.391C446.616 0 512 65.385 512 145.304v221.391c0 79.921-65.384 145.306-145.305 145.306H145.304C65.384 512.001 0 446.616 0 366.695V145.304C0 65.385 65.384 0 145.304 0zm5.743 188.396c-6.578 0-11.912-5.333-11.912-11.911 0-6.579 5.334-11.912 11.912-11.912h125.899c6.578 0 11.911 5.333 11.911 11.912 0 6.578-5.333 11.911-11.911 11.911H151.047zm0 63.877c-6.578 0-11.912-5.334-11.912-11.912 0-6.578 5.334-11.912 11.912-11.912h125.899c6.578 0 11.911 5.334 11.911 11.912 0 6.578-5.333 11.912-11.911 11.912H151.047zm164.597 22.172v-89.072c0-15.663 9.506-25.314 27.967-25.314h24.477c7.766 0 14.062 6.296 14.062 14.062 0 7.766-9.279 11.412-17.045 11.412h-21.336V307.97c0 2.567.02 4.715-.156 6.498-1.113 20.878-18.401 37.473-39.555 37.473-21.847 0-39.613-17.783-39.613-39.613 0-21.825 17.788-39.613 39.613-39.613 4.03 0 7.92.607 11.586 1.73zm-164.597 40.347c-6.578 0-11.912-5.334-11.912-11.912 0-6.578 5.334-11.911 11.912-11.911h76.295c6.578 0 11.912 5.333 11.912 11.911 0 6.578-5.334 11.912-11.912 11.912h-76.295z"/></svg>